<svg xmlns="http://www.w3.org/2000/svg"><symbol id="icon-econom1-original" viewBox="0 0 159.12 147.57">
    <title>
        econom1-original
    </title>
    <g data-name="&#x421;&#x43B;&#x43E;&#x439; 3">
        <path fill="#d0e8f9" d="M134.87 76L90.04 97.11l-19.16-.57L24.87 76V4.21h110V76z" data-name="&#x421;&#x43B;&#x43E;&#x439; 2"/>
        <path d="M32.23 133.93h7.28a2.43 2.43 0 0 1 0 4.85h-7.28a2.43 2.43 0 0 1 0-4.85z" fill="#0096e6"/>
        <path d="M46.79 133.93h7.28a2.43 2.43 0 0 1 0 4.85h-7.28a2.43 2.43 0 0 1 0-4.85z" fill="#0096e6"/>
        <path d="M61.34 133.93h7.28a2.43 2.43 0 0 1 0 4.85h-7.28a2.43 2.43 0 0 1 0-4.85z" fill="#0096e6"/>
        <path d="M75.9 133.93h7.28a2.43 2.43 0 0 1 0 4.85H75.9a2.43 2.43 0 0 1 0-4.85z" fill="#0096e6"/>
        <path d="M90.45 133.93h7.28a2.43 2.43 0 0 1 0 4.85h-7.28a2.43 2.43 0 0 1 0-4.85z" fill="#0096e6"/>
        <path d="M105 133.93h7.28a2.43 2.43 0 1 1 0 4.85H105a2.43 2.43 0 0 1 0-4.85z" fill="#0096e6"/>
        <path d="M119.34 133.93h7.28a2.43 2.43 0 1 1 0 4.85h-7.28a2.43 2.43 0 0 1 0-4.85z" fill="#0096e6"/>
        <path d="M157.94 61.13l-20.32-13.47v-45A2.64 2.64 0 0 0 135 0H24.13a2.63 2.63 0 0 0-2.64 2.64v45L1.18 61.13A2.63 2.63 0 0 0 0 63.33v81.61a2.64 2.64 0 0 0 2.64 2.64h153.84a2.64 2.64 0 0 0 2.64-2.64V63.33a2.63 2.63 0 0 0-1.18-2.2zM21.49 70.35L13.23 66h8.27zM5.27 67.71l60.6 32.15L5.27 140zm74.29 29.4l68.18 45.2H11.38zm13.68 2.75l60.61-32.15V140zM137.62 66h8.27l-8.27 4.39zm10.12-5.27h-10.12V54zM132.35 5.27v67.87l-44.11 23.4L81 91.75a2.63 2.63 0 0 0-2.91 0l-7.23 4.79-44.09-23.4V5.27zM21.49 60.69H11.38L21.49 54zm0 0" fill="#0096e6"/>
        <path d="M79.56 69.31h21a2.64 2.64 0 1 0 0-5.27h-21A18.38 18.38 0 0 1 61.2 45.67v-.77a18.36 18.36 0 1 1 36.72 0v1.94a4 4 0 1 1-7.95 0v-3.69a11.4 11.4 0 1 0-3.88 8.55 9.24 9.24 0 0 0 17.1-4.86V44.9a23.63 23.63 0 1 0-47.26 0v.78a23.66 23.66 0 0 0 23.63 23.63zm-1-20a6.11 6.11 0 1 1 6.11-6.11 6.12 6.12 0 0 1-6.11 6.11zm0 0" fill="#0096e6"/>
    </g>
</symbol><symbol id="icon-econom2-original" viewBox="0 0 151.79 147.16">
    <title>
        econom-2-original
    </title>
    <g data-name="&#x421;&#x43B;&#x43E;&#x439; 3">
        <g data-name="&#x421;&#x43B;&#x43E;&#x439; 6" fill="#d0e8f9">
            <path d="M21.75 50.55h15v57.78h-15z"/>
            <path d="M146.73 100.89L130 108.33V50.55l18.45 6.68-1.72 43.66z"/>
            <path d="M71.75 133.74H89v8.45H71.75z"/>
        </g>
        <path d="M79 108.33V95.39a2.54 2.54 0 0 0-5.07 0v12.94a2.54 2.54 0 0 0 5.07 0zm0 0" fill="#0096e6"/>
        <path d="M61.42 116.78a2.53 2.53 0 0 0 .33-3.58l-8.29-10a2.53 2.53 0 0 0-3.9 3.24l8.29 10a2.53 2.53 0 0 0 3.56.33zm0 0" fill="#0096e6"/>
        <path d="M93.91 117.22l10-8.29a2.53 2.53 0 1 0-3.24-3.9l-10 8.29a2.53 2.53 0 0 0 3.23 3.9zm0 0" fill="#0096e6"/>
        <path d="M143.46 51.56a2.23 2.23 0 0 0 .12-.55v-7.28a2.61 2.61 0 0 0-.27-1.09 2.47 2.47 0 0 0-.3-1.32L140 36A72.27 72.27 0 0 0 77.53 0h-.81a72.31 72.31 0 0 0-62.44 36l-3.7 6.43a2.45 2.45 0 0 0-.35 1.26v6.36A22.34 22.34 0 0 0 0 68.83V88.6A22.4 22.4 0 0 0 22.36 111h10.85a7.61 7.61 0 0 0 7.6-7.6V54.07a7.61 7.61 0 0 0-7.6-7.6H22.36a22.16 22.16 0 0 0-7.07 1.25v-3.3l3.36-5.83A67.23 67.23 0 0 1 76.72 5.07h.81a67.21 67.21 0 0 1 58 33.51l2.95 5.12v4.74a22.22 22.22 0 0 0-9.09-2h-10.81a7.61 7.61 0 0 0-7.6 7.6v49.29a7.61 7.61 0 0 0 7.6 7.6h10.86a22.14 22.14 0 0 0 5.84-.88l-12 20.83a9 9 0 0 1-7.77 4.48H95.07a2.45 2.45 0 0 0-1.27.38 9.18 9.18 0 0 0-8.91-7.09H68.07a9.24 9.24 0 0 0 0 18.48h16.82a9.17 9.17 0 0 0 8.9-7.1 2.47 2.47 0 0 0 1.28.39h20.41a14.06 14.06 0 0 0 12.15-7L143 106.83a2.62 2.62 0 0 0 .27-.81 22.26 22.26 0 0 0 8.5-17.42V68.83a22.27 22.27 0 0 0-8.33-17.27zM5.07 88.6V68.83A17.29 17.29 0 0 1 19.9 51.77v53.71a.67.67 0 0 0 0 .16 17.24 17.24 0 0 1-14.86-17zm30.68-34.53v49.29a2.53 2.53 0 0 1-2.54 2.53h-8.34a1.62 1.62 0 0 0 .08-.4V51.73a1.2 1.2 0 0 0 0-.2h8.29a2.54 2.54 0 0 1 2.54 2.54zM64 137.85a4.11 4.11 0 0 1 4.11-4.11H69v8.35h-.88a4.14 4.14 0 0 1-4.12-4.24zm20.93 4.24H74v-8.23-.11h10.89a4.17 4.17 0 0 1 0 8.34zM116 103.36V54.07a2.54 2.54 0 0 1 2.54-2.54h8.29V105.48a2.32 2.32 0 0 0 .08.41h-8.34a2.54 2.54 0 0 1-2.54-2.53zm30.73-14.76a17.25 17.25 0 0 1-14.87 17 .68.68 0 0 0 0-.16V51.77a17.29 17.29 0 0 1 14.84 17.06zm0 0" fill="#0096e6"/>
    </g>
</symbol><symbol id="icon-econom3-original" viewBox="0 0 148.75 146.23">
    <title>
        econom-3-original
    </title>
    <g data-name="&#x421;&#x43B;&#x43E;&#x439; 3">
        <path fill="#fff" d="M25.21 42.86h121.02v60.51H25.21V42.86z"/>
        <path d="M148.75 105.89H22.69V40.34h126.06zm-121-5h116V45.38h-116z" fill="#0096e6"/>
        <path d="M25.21 123.54a2.38 2.38 0 0 1-2.52-2.54v-17.63a2.38 2.38 0 0 1 2.52-2.52 2.38 2.38 0 0 1 2.52 2.52V121a2.38 2.38 0 0 1-2.52 2.54zm0-78.16a2.38 2.38 0 0 1-2.52-2.52V22.69H12.61a2.38 2.38 0 0 1-2.52-2.52 2.38 2.38 0 0 1 2.52-2.52h12.6a2.38 2.38 0 0 1 2.52 2.52v22.69a2.38 2.38 0 0 1-2.52 2.52z" fill="#0096e6"/>
        <path d="M60.51 133.63a10.08 10.08 0 1 1-10.08-10.08 10.11 10.11 0 0 1 10.08 10.08z" fill="#fff"/>
        <path d="M50.42 146.23A12.61 12.61 0 1 1 63 133.63a12.48 12.48 0 0 1-12.58 12.6zm0-20.17a7.56 7.56 0 1 0 7.58 7.57 7.43 7.43 0 0 0-7.58-7.57z" fill="#0096e6"/>
        <path d="M121 133.63a10.08 10.08 0 1 1-10.08-10.08A10.11 10.11 0 0 1 121 133.63z" fill="#fff"/>
        <path d="M110.93 146.23a12.61 12.61 0 1 1 12.61-12.61 12.48 12.48 0 0 1-12.61 12.61zm0-20.17a7.56 7.56 0 1 0 7.56 7.56 7.43 7.43 0 0 0-7.56-7.56z" fill="#0096e6"/>
        <path d="M133.63 123.54H25.21a2.52 2.52 0 1 1 0-5h108.42a2.52 2.52 0 1 1 0 5zm-7.56-17.65a2.38 2.38 0 0 1-2.52-2.52V85.72h-15.14v17.65a2.52 2.52 0 0 1-5 0V85.72H88.24v17.65a2.52 2.52 0 0 1-5 0V85.72H68.07v17.65a2.52 2.52 0 0 1-5 0V85.72H47.9v17.65a2.52 2.52 0 0 1-5 0V85.72H25.21a2.52 2.52 0 1 1 0-5h17.65V65.55H25.21a2.52 2.52 0 1 1 0-5h17.65V42.86a2.52 2.52 0 1 1 5 0v17.65H63V42.86a2.52 2.52 0 1 1 5 0v17.65h15.2V42.86a2.52 2.52 0 1 1 5 0v17.65h15.13V42.86a2.52 2.52 0 0 1 5 0v17.65h15.13V42.86a2.52 2.52 0 1 1 5 0v17.65h17.65a2.52 2.52 0 1 1 0 5h-17.53v15.17h17.65a2.52 2.52 0 1 1 0 5h-17.65v17.65a2.38 2.38 0 0 1-2.52 2.56zm-17.66-25.21h15.13V65.55h-15.13zm-20.17 0h15.13V65.55H88.24zm-20.17 0H83.2V65.55H68.07zm-20.17 0H63V65.55H47.9z" fill="#0096e6"/>
        <path d="M146.23 42.86v60.51" fill="#d0e8f9"/>
        <path d="M146.23 105.89a2.38 2.38 0 0 1-2.52-2.52V42.86a2.52 2.52 0 0 1 5 0v60.51a2.38 2.38 0 0 1-2.48 2.52z" fill="#0096e6"/>
        <path d="M17.65 20.17a7.43 7.43 0 0 1-7.56 7.56 7.43 7.43 0 0 1-7.56-7.56 7.43 7.43 0 0 1 7.56-7.56 7.43 7.43 0 0 1 7.56 7.56z" fill="#fff"/>
        <path d="M10.08 30.25a10.08 10.08 0 1 1 10.09-10.08 10.11 10.11 0 0 1-10.09 10.08zm0-15.13a5 5 0 1 0 5 5 5.06 5.06 0 0 0-5-4.99z" fill="#0096e6"/>
        <path fill="#d0e8f9" d="M37.82 22.69h35.3v20.17h-35.3V22.69z"/>
        <path d="M75.64 45.38H35.3V20.17h40.34zm-35.3-5h30.25V25.21H40.34z" fill="#0096e6"/>
        <path fill="#d0e8f9" d="M73.12 2.52h40.33v40.34H73.12V2.52z"/>
        <path d="M116 45.38H70.59V0H116zm-40.34-5h35.3V5H75.64z" fill="#0096e6"/>
        <path fill="#d0e8f9" d="M113.45 10.09h25.22v32.77h-25.22V10.09z"/>
        <path d="M141.19 45.38h-30.26V7.56h30.25zm-25.21-5h20.17V12.61H116z" fill="#0096e6"/>
    </g>
</symbol></svg>