<svg id="SvgjsSvg1011" xmlns="http://www.w3.org/2000/svg" version="1.1" xmlns:xlink="http://www.w3.org/1999/xlink" xmlns:svgjs="http://svgjs.com/svgjs" width="18" height="20" viewBox="0 0 18 20"><title>cross</title><desc>Created with Avocode.</desc><defs id="SvgjsDefs1012"></defs><path id="SvgjsPath1013" d="M1145.59 215.995L1152.6599999999999 208.912C1153.1 208.472 1153.1 207.75900000000001 1152.6599999999999 207.32C1152.2199999999998 206.879 1151.5099999999998 206.879 1151.07 207.32L1144 214.403L1136.92 207.32C1136.48 206.879 1135.77 206.879 1135.3300000000002 207.32C1134.89 207.759 1134.89 208.47199999999998 1135.3300000000002 208.912L1142.4 215.995L1135.3300000000002 223.079C1134.89 223.518 1134.89 224.232 1135.3300000000002 224.672C1135.5500000000002 224.891 1135.8400000000001 225.001 1136.1200000000001 225.001C1136.41 225.001 1136.7 224.891 1136.92 224.672L1144 217.589L1151.07 224.672C1151.29 224.891 1151.58 225.001 1151.87 225.001C1152.1499999999999 225.001 1152.4399999999998 224.891 1152.6599999999999 224.672C1153.1 224.232 1153.1 223.518 1152.6599999999999 223.079Z " fill="#4c4f60" fill-opacity="1" transform="matrix(1,0,0,1,-1135,-206)"></path></svg>