<svg xmlns="http://www.w3.org/2000/svg" viewBox="0 0 159.12 147.57">
    <title>econom1-original</title>
    <g id="Слой_2" data-name="Слой 2">
        <g id="Слой_3" data-name="Слой 3">
            <g id="mail">
                <g id="Слой_2-2" data-name="Слой 2">
                    <polygon style="fill:#d0e8f9;"
                             points="134.87 76 90.04 97.11 70.88 96.54 24.87 76 24.87 4.21 134.87 4.21 134.87 76"/>
                </g>
                <path style="fill:#0096e6;" d="M32.23,133.93h7.28a2.43,2.43,0,0,1,0,4.85H32.23a2.43,2.43,0,0,1,0-4.85Z"/>
                <path style="fill:#0096e6;" d="M46.79,133.93h7.28a2.43,2.43,0,0,1,0,4.85H46.79a2.43,2.43,0,0,1,0-4.85Z"/>
                <path style="fill:#0096e6;" d="M61.34,133.93h7.28a2.43,2.43,0,0,1,0,4.85H61.34a2.43,2.43,0,0,1,0-4.85Z"/>
                <path style="fill:#0096e6;" d="M75.9,133.93h7.28a2.43,2.43,0,0,1,0,4.85H75.9a2.43,2.43,0,0,1,0-4.85Z"/>
                <path style="fill:#0096e6;" d="M90.45,133.93h7.28a2.43,2.43,0,0,1,0,4.85H90.45a2.43,2.43,0,0,1,0-4.85Z"/>
                <path style="fill:#0096e6;" d="M105,133.93h7.28a2.43,2.43,0,1,1,0,4.85H105a2.43,2.43,0,0,1,0-4.85Z"/>
                <path style="fill:#0096e6;" d="M119.34,133.93h7.28a2.43,2.43,0,1,1,0,4.85h-7.28a2.43,2.43,0,0,1,0-4.85Z"/>
                <path style="fill:#0096e6;"
                      d="M157.94,61.13,137.62,47.66v-45A2.64,2.64,0,0,0,135,0H24.13a2.63,2.63,0,0,0-2.64,2.64v45L1.18,61.13h0A2.63,2.63,0,0,0,0,63.33v81.61a2.64,2.64,0,0,0,2.64,2.64H156.48a2.64,2.64,0,0,0,2.64-2.64V63.33a2.63,2.63,0,0,0-1.18-2.2ZM21.49,70.35,13.23,66h8.27ZM5.27,67.71l60.6,32.15L5.27,140Zm74.29,29.4,68.18,45.2H11.38Zm13.68,2.75,60.61-32.15V140ZM137.62,66h8.27l-8.27,4.39Zm10.12-5.27H137.62V54ZM132.35,5.27V73.14L88.24,96.54,81,91.75a2.63,2.63,0,0,0-2.91,0l-7.23,4.79L26.77,73.14V5.27ZM21.49,60.69H11.38L21.49,54Zm0,0"/>
                <path style="fill:#0096e6;"
                      d="M79.56,69.31h21a2.64,2.64,0,1,0,0-5.27h-21A18.38,18.38,0,0,1,61.2,45.67V44.9a18.36,18.36,0,1,1,36.72,0v1.94a4,4,0,1,1-7.95,0V43.15a11.4,11.4,0,1,0-3.88,8.55,9.24,9.24,0,0,0,17.1-4.86V44.9a23.63,23.63,0,1,0-47.26,0v.78A23.66,23.66,0,0,0,79.56,69.31Zm-1-20a6.11,6.11,0,1,1,6.11-6.11,6.12,6.12,0,0,1-6.11,6.11Zm0,0"/>
            </g>
        </g>
    </g>
</svg>