<svg id="SvgjsSvg1023" xmlns="http://www.w3.org/2000/svg" version="1.1" xmlns:xlink="http://www.w3.org/1999/xlink" xmlns:svgjs="http://svgjs.com/svgjs" width="22" height="17" viewBox="0 0 22 17"><title>Forma 1</title><desc>Created with Avocode.</desc><defs id="SvgjsDefs1024"></defs><path id="SvgjsPath1025" d="M436 5157.98L445.561 5149.36C445.168 5149.139999999999 444.727 5149 444.25 5149L427.75 5149C427.273 5149 426.831 5149.14 426.44 5149.36ZM438.665 5157.45L436.452 5159.45C436.323 5159.57 436.162 5159.62 436 5159.62C435.838 5159.62 435.677 5159.57 435.547 5159.45L433.334 5157.45L426.3 5165.5599999999995C426.721 5165.839999999999 427.216 5165.999999999999 427.75 5165.999999999999L444.25 5165.999999999999C444.784 5165.999999999999 445.279 5165.839999999999 445.7 5165.5599999999995ZM447 5151.83C447 5151.28 446.839 5150.7699999999995 446.572 5150.33L439.701 5156.5199999999995L446.64700000000005 5164.53C446.86400000000003 5164.12 447.00000000000006 5163.66 447.00000000000006 5163.17ZM432.299 5156.52L425.35299999999995 5164.530000000001C425.13499999999993 5164.120000000001 424.99999999999994 5163.660000000001 424.99999999999994 5163.170000000001L424.99999999999994 5151.830000000001C424.99999999999994 5151.280000000001 425.16099999999994 5150.77 425.42799999999994 5150.330000000001Z " fill="#2f9ce7" fill-opacity="1" transform="matrix(1,0,0,1,-425,-5149)"></path></svg>