<svg id="SvgjsSvg1020" xmlns="http://www.w3.org/2000/svg" version="1.1" xmlns:xlink="http://www.w3.org/1999/xlink" xmlns:svgjs="http://svgjs.com/svgjs" width="18" height="17" viewBox="0 0 18 17"><title>Forma 1</title><desc>Created with Avocode.</desc><defs id="SvgjsDefs1021"></defs><path id="SvgjsPath1022" d="M442.992 5131.42C443.028 5131.6900000000005 442.944 5131.93 442.74 5132.14L440.346 5134.51C440.238 5134.63 440.097 5134.74 439.923 5134.820000000001C439.749 5134.900000000001 439.578 5134.960000000001 439.41 5134.9800000000005C439.398 5134.9800000000005 439.362 5134.990000000001 439.302 5134.990000000001C439.242 5135.000000000001 439.16400000000004 5135.000000000001 439.06800000000004 5135.000000000001C438.84000000000003 5135.000000000001 438.47100000000006 5134.960000000001 437.96200000000005 5134.880000000001C437.45200000000006 5134.800000000001 436.82800000000003 5134.610000000001 436.09000000000003 5134.310000000001C435.35200000000003 5134.000000000001 434.51500000000004 5133.540000000001 433.579 5132.930000000001C432.644 5132.3200000000015 431.648 5131.480000000001 430.592 5130.410000000001C429.752 5129.580000000001 429.056 5128.790000000001 428.50399999999996 5128.030000000001C427.95199999999994 5127.27 427.508 5126.580000000001 427.17299999999994 5125.93C426.83699999999993 5125.29 426.5849999999999 5124.71 426.417 5124.1900000000005C426.24899999999997 5123.660000000001 426.135 5123.210000000001 426.075 5122.84C426.015 5122.46 425.991 5122.16 426.003 5121.9400000000005C426.015 5121.7300000000005 426.02099999999996 5121.610000000001 426.02099999999996 5121.580000000001C426.04499999999996 5121.420000000001 426.09899999999993 5121.240000000001 426.18299999999994 5121.070000000001C426.26699999999994 5120.900000000001 426.3689999999999 5120.76 426.4889999999999 5120.650000000001L428.8819999999999 5118.250000000001C429.0499999999999 5118.080000000001 429.2419999999999 5118.000000000001 429.4579999999999 5118.000000000001C429.6139999999999 5118.000000000001 429.7519999999999 5118.050000000001 429.8719999999999 5118.140000000001C429.9919999999999 5118.230000000001 430.0939999999999 5118.340000000001 430.1779999999999 5118.470000000001L432.10399999999987 5122.120000000001C432.2119999999999 5122.320000000001 432.24199999999985 5122.530000000001 432.19399999999985 5122.750000000001C432.14599999999984 5122.9800000000005 432.04399999999987 5123.170000000001 431.88799999999986 5123.330000000001L431.00599999999986 5124.210000000001C430.98199999999986 5124.240000000001 430.96099999999984 5124.280000000001 430.94299999999987 5124.330000000001C430.9249999999999 5124.380000000001 430.9159999999999 5124.430000000001 430.9159999999999 5124.470000000001C430.9639999999999 5124.720000000001 431.0719999999999 5125.010000000001 431.2399999999999 5125.330000000001C431.3839999999999 5125.620000000001 431.6059999999999 5125.970000000001 431.9059999999999 5126.380000000001C432.2059999999999 5126.800000000001 432.6319999999999 5127.270000000001 433.1829999999999 5127.810000000001C433.7229999999999 5128.370000000002 434.20299999999986 5128.800000000001 434.6229999999999 5129.100000000001C435.0429999999999 5129.410000000002 435.3939999999999 5129.630000000001 435.6759999999999 5129.780000000002C435.95799999999986 5129.920000000002 436.17399999999986 5130.010000000001 436.3239999999999 5130.040000000002L436.5489999999999 5130.080000000002C436.5729999999999 5130.080000000002 436.6119999999999 5130.0700000000015 436.66599999999994 5130.060000000001C436.7199999999999 5130.040000000001 436.75899999999996 5130.020000000001 436.78299999999996 5129.990000000002L437.80899999999997 5128.950000000002C438.025 5128.760000000002 438.27599999999995 5128.660000000002 438.56399999999996 5128.660000000002C438.768 5128.660000000002 438.92999999999995 5128.700000000002 439.04999999999995 5128.770000000001L439.0679999999999 5128.770000000001L442.5419999999999 5130.8200000000015C442.7939999999999 5130.980000000001 442.9439999999999 5131.180000000001 442.9919999999999 5131.420000000002Z " fill="#000000" fill-opacity="1" transform="matrix(1,0,0,1,-426,-5118)"></path></svg>