<svg id="SvgjsSvg1011" xmlns="http://www.w3.org/2000/svg" version="1.1" xmlns:xlink="http://www.w3.org/1999/xlink" xmlns:svgjs="http://svgjs.com/svgjs" width="41" height="40" viewBox="0 0 41 40"><title>Forma 1</title><desc>Created with Avocode.</desc><defs id="SvgjsDefs1012"></defs><path id="SvgjsPath1013" d="M404.688 2983L388.311 2983C386.733 2983 385.448 2984.32 385.448 2985.94L385.448 3020.06C385.448 3021.68 386.733 3023 388.311 3023L404.68699999999995 3023C406.26599999999996 3023 407.55199999999996 3021.68 407.55199999999996 3020.06L407.55199999999996 2985.94C407.55199999999996 2984.32 406.26599999999996 2983 404.688 2983ZM386.748 2988.33L406.252 2988.33L406.252 3013.67L386.748 3013.67ZM404.688 3021.67L388.311 3021.67C387.44899999999996 3021.67 386.748 3020.9500000000003 386.748 3020.06L386.748 3015L406.252 3015L406.252 3020.06C406.252 3020.95 405.55 3021.67 404.688 3021.67ZM388.311 2984.33L404.68699999999995 2984.33C405.54999999999995 2984.33 406.25199999999995 2985.0499999999997 406.25199999999995 2985.94L406.25199999999995 2987L386.74799999999993 2987L386.74799999999993 2985.94C386.74799999999993 2985.05 387.44899999999996 2984.33 388.3109999999999 2984.33ZM413.801 2986.05C413.546 2985.79 413.13599999999997 2985.79 412.881 2986.05C412.62699999999995 2986.3100000000004 412.62699999999995 2986.73 412.881 2986.9900000000002C415.30999999999995 2989.48 415.30999999999995 2993.53 412.881 2996.0200000000004C412.62699999999995 2996.2800000000007 412.62699999999995 2996.7100000000005 412.881 2996.9700000000003C413.008 2997.1000000000004 413.17499999999995 2997.1600000000003 413.34099999999995 2997.1600000000003C413.50699999999995 2997.1600000000003 413.674 2997.1000000000004 413.80099999999993 2996.9700000000003C416.7369999999999 2993.96 416.7369999999999 2989.0600000000004 413.80099999999993 2986.05ZM380.118 2986.99C380.372 2986.7299999999996 380.372 2986.31 380.118 2986.0499999999997C379.864 2985.7899999999995 379.453 2985.7899999999995 379.199 2986.0499999999997C376.26300000000003 2989.06 376.26300000000003 2993.9599999999996 379.199 2996.97C379.326 2997.1 379.492 2997.16 379.658 2997.16C379.825 2997.16 379.99100000000004 2997.1 380.118 2996.97C380.372 2996.7099999999996 380.372 2996.2799999999997 380.118 2996.02C377.689 2993.53 377.689 2989.48 380.118 2986.99ZM396.5 3015.67C395.065 3015.67 393.899 3016.86 393.899 3018.33C393.899 3019.7999999999997 395.065 3021 396.5 3021C397.934 3021 399.1 3019.8 399.1 3018.33C399.1 3016.86 397.934 3015.67 396.5 3015.67ZM411.063 2987.56C410.80899999999997 2987.2999999999997 410.39799999999997 2987.2999999999997 410.144 2987.56C409.89 2987.82 409.89 2988.25 410.144 2988.5099999999998C410.948 2989.33 411.391 2990.43 411.391 2991.6C411.391 2992.77 410.94800000000004 2993.87 410.144 2994.69C409.89 2994.9500000000003 409.89 2995.37 410.144 2995.63C410.271 2995.76 410.437 2995.83 410.603 2995.83C410.77 2995.83 410.93600000000004 2995.7599999999998 411.063 2995.63C412.113 2994.56 412.691 2993.12 412.691 2991.6C412.691 2990.0699999999997 412.114 2988.64 411.063 2987.56ZM396.5 3019.67C395.783 3019.67 395.2 3019.07 395.2 3018.33C395.2 3017.6 395.783 3017 396.5 3017C397.217 3017 397.8 3017.6 397.8 3018.33C397.8 3019.0699999999997 397.217 3019.67 396.5 3019.67ZM393.899 2986.33L396.5 2986.33C396.859 2986.33 397.15 2986.04 397.15 2985.67C397.15 2985.3 396.859 2985 396.5 2985L393.899 2985C393.54 2985 393.249 2985.3 393.249 2985.67C393.249 2986.04 393.54 2986.33 393.899 2986.33ZM398.45 2986.33L399.09999999999997 2986.33C399.46 2986.33 399.74999999999994 2986.04 399.74999999999994 2985.67C399.74999999999994 2985.3 399.4599999999999 2985 399.09999999999997 2985L398.45 2985C398.091 2985 397.8 2985.3 397.8 2985.67C397.8 2986.04 398.091 2986.33 398.45 2986.33ZM382.856 2987.38C382.602 2987.12 382.191 2987.12 381.936 2987.38C380.88599999999997 2988.46 380.308 2989.8900000000003 380.308 2991.4100000000003C380.308 2992.9400000000005 380.88599999999997 2994.3700000000003 381.936 2995.4500000000003C382.063 2995.5800000000004 382.22999999999996 2995.6400000000003 382.39599999999996 2995.6400000000003C382.56199999999995 2995.6400000000003 382.729 2995.5800000000004 382.85599999999994 2995.4500000000003C383.10999999999996 2995.19 383.10999999999996 2994.7700000000004 382.85599999999994 2994.51C382.05199999999996 2993.6800000000003 381.6089999999999 2992.5800000000004 381.6089999999999 2991.4100000000003C381.6089999999999 2990.2500000000005 382.05099999999993 2989.15 382.85599999999994 2988.32C383.1089999999999 2988.06 383.1089999999999 2987.6400000000003 382.85599999999994 2987.38Z " fill="#ffffff" fill-opacity="1" transform="matrix(1,0,0,1,-376,-2983)"></path></svg>