<svg id="SvgjsSvg1014" xmlns="http://www.w3.org/2000/svg" version="1.1" xmlns:xlink="http://www.w3.org/1999/xlink" xmlns:svgjs="http://svgjs.com/svgjs" width="31" height="40" viewBox="0 0 31 40"><title>Forma 1</title><desc>Created with Avocode.</desc><defs id="SvgjsDefs1015"></defs><path id="SvgjsPath1016" d="M405.745 3198.33L389.255 3198.33C388.891 3198.33 388.596 3198.63 388.596 3199C388.596 3199.37 388.891 3199.67 389.255 3199.67L405.745 3199.67C406.109 3199.67 406.404 3199.37 406.404 3199C406.404 3198.63 406.109 3198.33 405.745 3198.33ZM405.745 3187.67L389.255 3187.67C388.891 3187.67 388.596 3187.9700000000003 388.596 3188.33C388.596 3188.7 388.891 3189 389.255 3189L405.745 3189C406.109 3189 406.404 3188.7 406.404 3188.33C406.404 3187.97 406.109 3187.67 405.745 3187.67ZM405.745 3193L389.255 3193C388.891 3193 388.596 3193.3 388.596 3193.67C388.596 3194.04 388.891 3194.33 389.255 3194.33L405.745 3194.33C406.109 3194.33 406.404 3194.04 406.404 3193.67C406.404 3193.3 406.109 3193 405.745 3193ZM405.745 3203.67L389.255 3203.67C388.891 3203.67 388.596 3203.9700000000003 388.596 3204.33C388.596 3204.7 388.891 3205 389.255 3205L405.745 3205C406.109 3205 406.404 3204.7 406.404 3204.33C406.404 3203.97 406.109 3203.67 405.745 3203.67ZM389.255 3183.67L395.851 3183.67C396.215 3183.67 396.511 3183.37 396.511 3183C396.511 3182.63 396.21500000000003 3182.33 395.851 3182.33L389.255 3182.33C388.891 3182.33 388.596 3182.63 388.596 3183C388.596 3183.37 388.891 3183.67 389.255 3183.67ZM403.38 3173L382 3173L382 3213L413 3213L413 3182.72ZM383.319 3211.67L383.319 3174.33L402.447 3174.33L402.447 3183.67L411.681 3183.67L411.681 3211.67ZM403.766 3175.28L410.74800000000005 3182.3300000000004L403.766 3182.3300000000004Z " fill="#ffffff" fill-opacity="1" transform="matrix(1,0,0,1,-382,-3173)"></path></svg>