<svg id="SvgjsSvg1017" xmlns="http://www.w3.org/2000/svg" version="1.1" xmlns:xlink="http://www.w3.org/1999/xlink" xmlns:svgjs="http://svgjs.com/svgjs" width="32" height="24" viewBox="0 0 32 24"><title>Forma 1</title><desc>Created with Avocode.</desc><defs id="SvgjsDefs1018"></defs><path id="SvgjsPath1019" d="M411.421 3396L384.579 3396C383.157 3396 382 3394.78 382 3393.28L382 3374.7200000000003C382 3373.2200000000003 383.157 3372.0000000000005 384.579 3372.0000000000005L411.421 3372.0000000000005C412.843 3372.0000000000005 414 3373.2200000000003 414 3374.7200000000003L414 3393.28C414 3394.78 412.843 3396 411.421 3396ZM384.579 3373.09C384.31336 3373.09 384.06305000000003 3373.1608 383.84427 3373.2854700000003L396.783 3385.19C397.44300000000004 3385.8 398.557 3385.8 399.216 3385.19L412.15797000000003 3373.28675C411.93866 3373.1612800000003 411.68755000000004 3373.09 411.42100000000005 3373.09ZM383.15071 3374.09115C383.07362 3374.28467 383.031 3374.49712 383.031 3374.7200000000003L383.031 3393.28C383.031 3394.1800000000003 383.726 3394.9100000000003 384.579 3394.9100000000003L411.421 3394.9100000000003C412.274 3394.9100000000003 412.969 3394.1800000000003 412.969 3393.28L412.969 3374.7200000000003C412.969 3374.49832 412.92683999999997 3374.2869600000004 412.85053 3374.0942800000003L402.35433 3383.7480600000004L408.263 3389.6000000000004C408.471 3389.8 408.481 3390.1500000000005 408.286 3390.3700000000003C408.184 3390.4800000000005 408.047 3390.5400000000004 407.909 3390.5400000000004C407.782 3390.5400000000004 407.655 3390.4900000000002 407.556 3390.3900000000003L401.61899999999997 3384.51C401.60371999999995 3384.4953 401.5895 3384.4798 401.57635999999997 3384.4635900000003L399.895 3386.01C399.371 3386.4900000000002 398.686 3386.7400000000002 398 3386.7400000000002C397.314 3386.7400000000002 396.628 3386.4900000000002 396.105 3386.01L394.42447000000004 3384.4638C394.41137000000003 3384.47993 394.39721000000003 3384.49537 394.38200000000006 3384.51L388.44300000000004 3390.3900000000003C388.34400000000005 3390.4900000000002 388.21700000000004 3390.5400000000004 388.09000000000003 3390.5400000000004C387.95300000000003 3390.5400000000004 387.81500000000005 3390.4800000000005 387.713 3390.3700000000003C387.51800000000003 3390.1500000000005 387.528 3389.8 387.73600000000005 3389.6000000000004L393.64661000000007 3383.7481100000005Z " fill="#ffffff" fill-opacity="1" transform="matrix(1,0,0,1,-382,-3372)"></path></svg>