<svg xmlns="http://www.w3.org/2000/svg" viewBox="0 0 148.75 146.23">
    <title>econom-3-original</title>
    <g id="Слой_2" data-name="Слой 2">
        <g id="Слой_3" data-name="Слой 3">
            <g id="wallet">
                <polygon style="fill:#fff;" points="25.21 42.86 146.23 42.86 146.23 103.37 25.21 103.37 25.21 42.86"/>
                <path style="fill:#0096e6;" d="M148.75,105.89H22.69V40.34H148.75Zm-121-5h116V45.38h-116Z"/>
                <path style="fill:#0096e6;"
                      d="M25.21,123.54A2.38,2.38,0,0,1,22.69,121V103.37a2.38,2.38,0,0,1,2.52-2.52,2.38,2.38,0,0,1,2.52,2.52V121A2.38,2.38,0,0,1,25.21,123.54Zm0-78.16a2.38,2.38,0,0,1-2.52-2.52V22.69H12.61a2.38,2.38,0,0,1-2.52-2.52,2.38,2.38,0,0,1,2.52-2.52H25.21a2.38,2.38,0,0,1,2.52,2.52V42.86A2.38,2.38,0,0,1,25.21,45.38Z"/>
                <path style="fill:#fff;" d="M60.51,133.63a10.08,10.08,0,1,1-10.08-10.08,10.11,10.11,0,0,1,10.08,10.08Z"/>
                <path style="fill:#0096e6;"
                      d="M50.42,146.23A12.61,12.61,0,1,1,63,133.63,12.48,12.48,0,0,1,50.42,146.23Zm0-20.17A7.56,7.56,0,1,0,58,133.63,7.43,7.43,0,0,0,50.42,126.06Z"/>
                <path style="fill:#fff;" d="M121,133.63a10.08,10.08,0,1,1-10.08-10.08A10.11,10.11,0,0,1,121,133.63Z"/>
                <path style="fill:#0096e6;"
                      d="M110.93,146.23a12.61,12.61,0,1,1,12.61-12.61A12.48,12.48,0,0,1,110.93,146.23Zm0-20.17a7.56,7.56,0,1,0,7.56,7.56A7.43,7.43,0,0,0,110.93,126.06Z"/>
                <path style="fill:#0096e6;"
                      d="M133.63,123.54H25.21a2.52,2.52,0,1,1,0-5H133.63a2.52,2.52,0,1,1,0,5Zm-7.56-17.65a2.38,2.38,0,0,1-2.52-2.52V85.72H108.41v17.65a2.52,2.52,0,0,1-5,0V85.72H88.24v17.65a2.52,2.52,0,0,1-5,0V85.72H68.07v17.65a2.52,2.52,0,0,1-5,0V85.72H47.9v17.65a2.52,2.52,0,0,1-5,0V85.72H25.21a2.52,2.52,0,1,1,0-5H42.86V65.55H25.21a2.52,2.52,0,1,1,0-5H42.86V42.86a2.52,2.52,0,1,1,5,0V60.51H63V42.86a2.52,2.52,0,1,1,5,0V60.51H83.2V42.86a2.52,2.52,0,1,1,5,0V60.51h15.13V42.86a2.52,2.52,0,0,1,5,0V60.51h15.13V42.86a2.52,2.52,0,1,1,5,0V60.51h17.65a2.52,2.52,0,1,1,0,5H128.58V80.68h17.65a2.52,2.52,0,1,1,0,5H128.58v17.65A2.38,2.38,0,0,1,126.06,105.89ZM108.41,80.68h15.13V65.55H108.41Zm-20.17,0h15.13V65.55H88.24Zm-20.17,0H83.2V65.55H68.07Zm-20.17,0H63V65.55H47.9Z"/>
                <path style="fill:#d0e8f9;" d="M146.23,42.86v60.51"/>
                <path style="fill:#0096e6;"
                      d="M146.23,105.89a2.38,2.38,0,0,1-2.52-2.52V42.86a2.52,2.52,0,0,1,5,0v60.51A2.38,2.38,0,0,1,146.23,105.89Z"/>
                <path style="fill:#fff;"
                      d="M17.65,20.17a7.43,7.43,0,0,1-7.56,7.56,7.43,7.43,0,0,1-7.56-7.56,7.43,7.43,0,0,1,7.56-7.56,7.43,7.43,0,0,1,7.56,7.56Z"/>
                <path style="fill:#0096e6;"
                      d="M10.08,30.25A10.08,10.08,0,1,1,20.17,20.17,10.11,10.11,0,0,1,10.08,30.25Zm0-15.13a5,5,0,1,0,5,5A5.06,5.06,0,0,0,10.08,15.13Z"/>
                <polygon style="fill:#d0e8f9;" points="37.82 22.69 73.12 22.69 73.12 42.86 37.82 42.86 37.82 22.69"/>
                <path style="fill:#0096e6;" d="M75.64,45.38H35.3V20.17H75.64Zm-35.3-5H70.59V25.21H40.34Z"/>
                <polygon style="fill:#d0e8f9;" points="73.12 2.52 113.45 2.52 113.45 42.86 73.12 42.86 73.12 2.52"/>
                <path style="fill:#0096e6;" d="M116,45.38H70.59V0H116Zm-40.34-5h35.3V5H75.64Z"/>
                <polygon style="fill:#d0e8f9;" points="113.45 10.09 138.67 10.09 138.67 42.86 113.45 42.86 113.45 10.09"/>
                <path style="fill:#0096e6;" d="M141.19,45.38H110.93V7.56h30.25Zm-25.21-5h20.17V12.61H116Z"/>
            </g>
        </g>
    </g>
</svg>