<svg xmlns="http://www.w3.org/2000/svg" viewBox="0 0 151.79 147.16">
    <title>econom-2-original</title>
    <g id="Слой_2" data-name="Слой 2">
        <g id="Слой_3" data-name="Слой 3">
            <g id="supprt">
                <g id="Слой_6" data-name="Слой 6">
                    <rect style="fill:#d0e8f9;" x="21.75" y="50.55" width="15" height="57.78"/>
                    <polygon style="fill:#d0e8f9;" points="146.73 100.89 130 108.33 130 50.55 148.45 57.23 146.73 100.89"/>
                    <rect style="fill:#d0e8f9;" x="71.75" y="133.74" width="17.25" height="8.45"/>
                </g>
                <path style="fill:#0096e6;" d="M79,108.33V95.39a2.54,2.54,0,0,0-5.07,0v12.94a2.54,2.54,0,0,0,5.07,0Zm0,0"/>
                <path style="fill:#0096e6;"
                      d="M61.42,116.78a2.53,2.53,0,0,0,.33-3.58l-8.29-10a2.53,2.53,0,0,0-3.9,3.24l8.29,10a2.53,2.53,0,0,0,3.56.33Zm0,0"/>
                <path style="fill:#0096e6;"
                      d="M93.91,117.22l10-8.29a2.53,2.53,0,1,0-3.24-3.9l-10,8.29a2.53,2.53,0,0,0,3.23,3.9Zm0,0"/>
                <path style="fill:#0096e6;"
                      d="M143.46,51.56a2.23,2.23,0,0,0,.12-.55V43.73a2.61,2.61,0,0,0-.27-1.09,2.47,2.47,0,0,0-.3-1.32L140,36A72.27,72.27,0,0,0,77.53,0h-.81A72.31,72.31,0,0,0,14.28,36l-3.7,6.43a2.45,2.45,0,0,0-.35,1.26v6.36A22.34,22.34,0,0,0,0,68.83V88.6A22.4,22.4,0,0,0,22.36,111H33.21a7.61,7.61,0,0,0,7.6-7.6V54.07a7.61,7.61,0,0,0-7.6-7.6H22.36a22.16,22.16,0,0,0-7.07,1.25v-3.3l3.36-5.83A67.23,67.23,0,0,1,76.72,5.07h.81a67.21,67.21,0,0,1,58,33.51l2.95,5.12v4.74a22.22,22.22,0,0,0-9.09-2H118.58a7.61,7.61,0,0,0-7.6,7.6v49.29a7.61,7.61,0,0,0,7.6,7.6h10.86a22.14,22.14,0,0,0,5.84-.88l-12,20.83a9,9,0,0,1-7.77,4.48H95.07a2.45,2.45,0,0,0-1.27.38,9.18,9.18,0,0,0-8.91-7.09H68.07a9.24,9.24,0,0,0,0,18.48H84.89a9.17,9.17,0,0,0,8.9-7.1,2.47,2.47,0,0,0,1.28.39h20.41a14.06,14.06,0,0,0,12.15-7L143,106.83a2.62,2.62,0,0,0,.27-.81,22.26,22.26,0,0,0,8.5-17.42V68.83a22.27,22.27,0,0,0-8.33-17.27ZM5.07,88.6V68.83A17.29,17.29,0,0,1,19.9,51.77v53.71a.67.67,0,0,0,0,.16,17.24,17.24,0,0,1-14.86-17ZM35.75,54.07v49.29a2.53,2.53,0,0,1-2.54,2.53H24.87a1.62,1.62,0,0,0,.08-.4V51.73a1.2,1.2,0,0,0,0-.2h8.29a2.54,2.54,0,0,1,2.54,2.54ZM64,137.85a4.11,4.11,0,0,1,4.11-4.11H69s0,.07,0,.12v8.23h-.88A4.14,4.14,0,0,1,64,137.85Zm20.93,4.24H74v-8.23s0-.07,0-.11H84.89a4.17,4.17,0,0,1,0,8.34ZM116,103.36V54.07a2.54,2.54,0,0,1,2.54-2.54h8.29c0,.07,0,.13,0,.19v53.76a2.32,2.32,0,0,0,.08.41h-8.34a2.54,2.54,0,0,1-2.54-2.53ZM146.73,88.6a17.25,17.25,0,0,1-14.87,17,.68.68,0,0,0,0-.16V51.77a17.29,17.29,0,0,1,14.84,17.06Zm0,0"/>
            </g>
        </g>
    </g>
</svg>