<svg xmlns="http://www.w3.org/2000/svg" viewBox="0 0 88.89 111.11"><defs><style>.cls-1{fill:#fff;}.cls-2{fill:#0096e6;}.cls-3{fill:#d0e8f9;}</style></defs><title>guarant-2-original</title><g id="Слой_2" data-name="Слой 2"><g id="Слой_7" data-name="Слой 7"><polygon class="cls-1" points="1.85 27.78 87.04 27.78 87.04 109.26 1.85 109.26 1.85 27.78"/><path class="cls-2" d="M88.89,111.11H0V25.93H88.89ZM3.7,107.41H85.19V29.63H3.7Z"/><path class="cls-2" d="M64.82,42.59A1.75,1.75,0,0,1,63,40.74a3.7,3.7,0,1,0-7.41,0,1.85,1.85,0,1,1-3.7,0,7.41,7.41,0,0,1,14.82,0A1.75,1.75,0,0,1,64.82,42.59Zm-29.63,0a1.75,1.75,0,0,1-1.85-1.85,3.7,3.7,0,1,0-7.41,0,1.85,1.85,0,1,1-3.7,0,7.41,7.41,0,1,1,14.82,0A1.75,1.75,0,0,1,35.19,42.59Z"/><polygon class="cls-3" points="3.7 1.85 85.19 1.85 85.19 27.78 3.7 27.78 3.7 1.85"/><path class="cls-2" d="M87,29.63H1.85V0H87ZM5.56,25.93H83.34V3.7H5.56Z"/><path class="cls-2" d="M44.45,68.52A16.6,16.6,0,0,1,27.78,51.85V40.74a1.85,1.85,0,0,1,3.7,0V51.85a13,13,0,1,0,25.93,0V40.74a1.85,1.85,0,0,1,3.7,0V51.85A16.6,16.6,0,0,1,44.45,68.52Zm37-38.89A1.68,1.68,0,0,1,80,28.89L72.22,18.52v9.26a1.85,1.85,0,0,1-3.7,0v-15a.68.68,0,0,1,.19-.56.18.18,0,0,1,.19-.19.4.4,0,0,1,.37-.37L80.37.56A1.79,1.79,0,0,1,83,.56a1.79,1.79,0,0,1,0,2.59l-10,10L83.15,26.67a2,2,0,0,1-.37,2.59A4.71,4.71,0,0,1,81.48,29.63Zm-74.08,0a2.63,2.63,0,0,1-1.11-.37,2,2,0,0,1-.37-2.59L16.11,13.15l-10-10a1.79,1.79,0,0,1,0-2.59A1.79,1.79,0,0,1,8.7.56L19.82,11.67l.37.37a.18.18,0,0,0,.19.19V27.78a1.75,1.75,0,0,1-1.85,1.85,1.75,1.75,0,0,1-1.85-1.85V18.52L8.89,28.89A1.68,1.68,0,0,1,7.41,29.63Z"/></g></g></svg>