<svg xmlns="http://www.w3.org/2000/svg" viewBox="0 0 110.57 106.96"><defs><style>.cls-1{fill:#fff;}.cls-2{fill:#0096e6;}.cls-3{fill:#d0e8f9;}</style></defs><title>guarant-4-original</title><g id="Слой_2" data-name="Слой 2"><g id="Слой_7" data-name="Слой 7"><path class="cls-1" d="M107.51,70.45a3.47,3.47,0,0,0,.55-4.79c-2.4-3.14-4.24-4.06-12.17.18l-16,9.77c-5,2.58-17.7,1.84-23.24,1.84,0,0,13.09.92,7.93-6.82a14,14,0,0,0-11.8-6.09H45.55a19.8,19.8,0,0,1-11.62-3.69C26,54.77,11.06,55.32,11.06,55.32V99.58H36.88a74.64,74.64,0,0,0,11.06-.92l24-3.69c.74,0,1.66-.18,2.4-.18h0a9.21,9.21,0,0,0,5.16-2.58l28-21.76Z"/><path class="cls-2" d="M36.88,101.43H9.22V53.48h1.84c.55,0,15.86-.37,24,5.72a17.41,17.41,0,0,0,10.51,3.32h7.19A16.17,16.17,0,0,1,66,69.34q2.49,3.6,1.11,6.09c4.61,0,9.59-.37,11.8-1.66L94.79,64c8.11-4.24,11.43-4.24,14.75.18a5.47,5.47,0,0,1-.92,7.38h0L80.77,93.68a12.1,12.1,0,0,1-6.09,3.14,10.88,10.88,0,0,1-2.58.37l-24,3.69C44.44,101.06,40.57,101.43,36.88,101.43Zm-24-3.69h24A69.52,69.52,0,0,0,47.58,97l24.34-3.69a7.56,7.56,0,0,0,2-.18h.18a7.72,7.72,0,0,0,4.06-2l.18-.18,28-21.76a1.74,1.74,0,0,0,.37-2.21c-1.48-2.21-2.4-3.14-10,.74L81,77.45c-4.24,2.21-12.36,2.4-21,2.21H56.62L56.8,76h2c2.4-.18,4.61-.55,5.16-1.48a3.41,3.41,0,0,0-.74-2.58,12.41,12.41,0,0,0-10.51-5.53H45.55a21.37,21.37,0,0,1-12.72-4.06C27.11,57.91,17,57.17,12.91,57.17Zm94.6-27.29Z"/><path class="cls-2" d="M56.62,79.67H38.73a1.84,1.84,0,1,1,0-3.69H56.62a1.84,1.84,0,1,1,0,3.69Z"/><polygon class="cls-3" points="1.84 49.79 11.06 49.79 11.06 105.12 1.84 105.12 1.84 49.79"/><path class="cls-2" d="M12.91,107H0v-59H12.91Zm-9.22-3.69H9.22V51.64H3.69Z"/><path class="cls-2" d="M31.35,85.2a1.74,1.74,0,0,1-1.84-1.84c0-4.61,3.5-7.38,9.22-7.38a1.84,1.84,0,0,1,0,3.69c-5.53,0-5.53,2.77-5.53,3.69A1.74,1.74,0,0,1,31.35,85.2Z"/><path class="cls-3" d="M92.21,16.6A14.75,14.75,0,1,1,77.45,1.84,14.8,14.8,0,0,1,92.21,16.6Z"/><path class="cls-2" d="M77.45,33.19a16.6,16.6,0,1,1,16.6-16.6A16.53,16.53,0,0,1,77.45,33.19Zm0-29.51A12.91,12.91,0,1,0,90.36,16.6,12.83,12.83,0,0,0,77.45,3.69Z"/><path class="cls-3" d="M42,64.18a22.6,22.6,0,0,0,3.5.37h7.19a22.59,22.59,0,0,1,3.5.37,14.58,14.58,0,0,0,8.3-13.28,14.75,14.75,0,1,0-29.51,0,14.56,14.56,0,0,0,7,12.54Z"/><path class="cls-2" d="M56.43,66.76l-.55-.18a17.89,17.89,0,0,0-3.14-.18H45.55A27.51,27.51,0,0,1,41.68,66h-.37l-.37-.18a17,17,0,0,1-7.75-14.2,16.6,16.6,0,1,1,33.19,0A16.23,16.23,0,0,1,57,66.57ZM42.78,62.33a14,14,0,0,0,2.77.18h7.19a16.24,16.24,0,0,1,3.14.37,12.86,12.86,0,1,0-19-11.25A12.61,12.61,0,0,0,42.78,62.33Z"/><path class="cls-1" d="M57.17,51.64a7.38,7.38,0,1,1-7.38-7.38,7.4,7.4,0,0,1,7.38,7.38Z"/><path class="cls-2" d="M49.79,60.86A9.22,9.22,0,1,1,59,51.64,9.13,9.13,0,0,1,49.79,60.86Zm0-14.75a5.53,5.53,0,1,0,5.53,5.53A5.43,5.43,0,0,0,49.79,46.1Z"/><path class="cls-1" d="M84.83,16.6a7.38,7.38,0,1,1-7.38-7.38,7.4,7.4,0,0,1,7.38,7.38Z"/><path class="cls-2" d="M77.45,25.82a9.13,9.13,0,0,1-9.22-9.22,9.22,9.22,0,0,1,18.44,0A9.13,9.13,0,0,1,77.45,25.82Zm0-14.75a5.43,5.43,0,0,0-5.53,5.53A5.53,5.53,0,0,0,83,16.6,5.43,5.43,0,0,0,77.45,11.06Z"/></g></g></svg>