<svg xmlns="http://www.w3.org/2000/svg" viewBox="0 0 109.3 109.3"><defs><style>.cls-1{fill:#fff;}.cls-2{fill:#0096e6;}.cls-3{fill:#d0e8f9;}</style></defs><title>guarant-3-original</title><g id="Слой_2" data-name="Слой 2"><g id="Слой_7" data-name="Слой 7"><polygon class="cls-1" points="1.95 1.95 37.08 1.95 37.08 107.35 1.95 107.35 1.95 1.95"/><path class="cls-2" d="M39,109.3H0V0H39ZM3.9,105.39H35.13V3.9H3.9Z"/><polygon class="cls-1" points="37.08 1.95 72.22 1.95 72.22 107.35 37.08 107.35 37.08 1.95"/><path class="cls-2" d="M74.17,109.3h-39V0h39ZM39,105.39H70.26V3.9H39Z"/><polygon class="cls-1" points="72.22 1.95 107.35 1.95 107.35 107.35 72.22 107.35 72.22 1.95"/><path class="cls-2" d="M109.3,109.3h-39V0h39Zm-35.13-3.9h31.23V3.9H74.17Z"/><polygon class="cls-3" points="9.76 9.76 29.28 9.76 29.28 48.79 9.76 48.79 9.76 9.76"/><path class="cls-2" d="M31.23,50.75H7.81V7.81H31.23Zm-19.52-3.9H27.32V11.71H11.71Z"/><polygon class="cls-3" points="44.89 9.76 64.41 9.76 64.41 48.79 44.89 48.79 44.89 9.76"/><path class="cls-2" d="M66.36,50.75H42.94V7.81H66.36Zm-19.52-3.9H62.46V11.71H46.84Z"/><polygon class="cls-3" points="80.02 9.76 99.54 9.76 99.54 48.79 80.02 48.79 80.02 9.76"/><path class="cls-2" d="M101.49,50.75H78.07V7.81h23.42ZM82,46.84H97.59V11.71H82Z"/><path class="cls-3" d="M29.28,87.83a9.76,9.76,0,1,1-9.76-9.76,9.66,9.66,0,0,1,9.76,9.76Z"/><path class="cls-2" d="M19.52,99.54A11.71,11.71,0,1,1,31.23,87.83,11.74,11.74,0,0,1,19.52,99.54Zm0-19.52a7.81,7.81,0,1,0,7.81,7.81A7.83,7.83,0,0,0,19.52,80Z"/><path class="cls-3" d="M64.41,87.83a9.76,9.76,0,1,1-9.76-9.76,9.66,9.66,0,0,1,9.76,9.76Z"/><path class="cls-2" d="M54.65,99.54A11.71,11.71,0,1,1,66.36,87.83,11.74,11.74,0,0,1,54.65,99.54Zm0-19.52a7.81,7.81,0,1,0,7.81,7.81A7.83,7.83,0,0,0,54.65,80Z"/><path class="cls-3" d="M99.54,87.83a9.76,9.76,0,1,1-9.76-9.76,9.66,9.66,0,0,1,9.76,9.76Z"/><path class="cls-2" d="M89.78,99.54a11.71,11.71,0,1,1,11.71-11.71A11.74,11.74,0,0,1,89.78,99.54Zm0-19.52a7.81,7.81,0,1,0,7.81,7.81A7.83,7.83,0,0,0,89.78,80Z"/></g></g></svg>