<svg xmlns="http://www.w3.org/2000/svg" xmlns:xlink="http://www.w3.org/1999/xlink" viewBox="0 0 100.01 111.11">
    <title>guarant-1-original</title>
    <g id="Слой_2" data-name="Слой 2">
        <g id="Слой_7" data-name="Слой 7">
            <g style="fill:none;">
                <path style="fill:#0096e6;"
                      d="M95.59,72.22H66.67V61.11H59.26V49.55a12.71,12.71,0,0,1,4.56-10,22.2,22.2,0,0,0,1-34A22.22,22.22,0,1,0,36,39.5a13.36,13.36,0,0,1,4.7,10.39V61.11H33.33V72.22H4.42A4.42,4.42,0,0,0,0,76.63v20.8a4.43,4.43,0,0,0,4.42,4.42h1.3a11.12,11.12,0,0,0,10.94,9.26H83.33a11.13,11.13,0,0,0,10.95-9.26h1.3A4.43,4.43,0,0,0,100,97.43V76.63a4.43,4.43,0,0,0-4.42-4.41ZM38.37,36.61a18.52,18.52,0,1,1,23.15.09,16.23,16.23,0,0,0-6,12.85V61.11H44.44V49.89a16.89,16.89,0,0,0-6.07-13.27ZM37,64.82H63v7.41H37Zm46.3,42.59H16.66a7.41,7.41,0,0,1-7.17-5.55h81a7.41,7.41,0,0,1-7.17,5.55Zm13-10a.72.72,0,0,1-.72.71H4.42a.71.71,0,0,1-.71-.71V76.63a.71.71,0,0,1,.71-.71H95.59a.72.72,0,0,1,.72.71Zm0,0"
                      transform="translate(0 0)"/>
            </g>
        </g>
    </g>
</svg>