<svg id="SvgjsSvg1026" xmlns="http://www.w3.org/2000/svg" version="1.1" xmlns:xlink="http://www.w3.org/1999/xlink" xmlns:svgjs="http://svgjs.com/svgjs" width="31" height="31" viewBox="0 0 31 31"><title>Forma 1</title><desc>Created with Avocode.</desc><defs id="SvgjsDefs1027"></defs><path id="SvgjsPath1028" d="M744.5 4879C735.954 4879 729 4885.95 729 4894.5C729 4903.05 735.954 4910 744.5 4910C753.047 4910 760 4903.05 760 4894.5C760 4885.95 753.047 4879 744.5 4879ZM744.5 4908.81C736.611 4908.81 730.192 4902.39 730.192 4894.5C730.192 4886.61 736.611 4880.19 744.5 4880.19C752.389 4880.19 758.808 4886.61 758.808 4894.5C758.808 4902.39 752.389 4908.81 744.5 4908.81ZM751.804 4888.14L742.6419999999999 4898.450000000001L737.122 4894.030000000001C736.866 4893.830000000001 736.4889999999999 4893.870000000001 736.284 4894.130000000001C736.079 4894.380000000001 736.12 4894.760000000001 736.377 4894.970000000001L742.3389999999999 4899.730000000001C742.449 4899.8200000000015 742.5799999999999 4899.8600000000015 742.712 4899.8600000000015C742.876 4899.8600000000015 743.04 4899.800000000001 743.157 4899.670000000002L752.696 4888.930000000002C752.9150000000001 4888.690000000002 752.893 4888.310000000002 752.6460000000001 4888.090000000002C752.4000000000001 4887.870000000002 752.023 4887.900000000002 751.8040000000001 4888.140000000002Z " fill="#3a3a3a" fill-opacity="1" transform="matrix(1,0,0,1,-729,-4879)"></path></svg>