<svg id="SvgjsSvg1029" xmlns="http://www.w3.org/2000/svg" version="1.1" xmlns:xlink="http://www.w3.org/1999/xlink" xmlns:svgjs="http://svgjs.com/svgjs" width="30" height="30" viewBox="0 0 30 30"><title>Forma 1</title><desc>Created with Avocode.</desc><defs id="SvgjsDefs1030"></defs><path id="SvgjsPath1031" d="M830 5702C821.729 5702 815 5708.73 815 5717C815 5725.27 821.729 5732 830 5732C838.271 5732 845 5725.27 845 5717C845 5708.73 838.271 5702 830 5702ZM830 5729.54C823.085 5729.54 817.459 5723.91 817.459 5717C817.459 5710.08 823.0849999999999 5704.46 830 5704.46C836.915 5704.46 842.541 5710.08 842.541 5717C842.541 5723.91 836.9150000000001 5729.54 830 5729.54ZM836.489 5711.24L827.5830000000001 5720.15L823.5110000000001 5716.08C823.0310000000001 5715.6 822.2520000000001 5715.6 821.772 5716.08C821.292 5716.5599999999995 821.292 5717.34 821.772 5717.82L826.714 5722.759999999999C826.9540000000001 5722.999999999999 827.268 5723.119999999999 827.5830000000001 5723.119999999999C827.8980000000001 5723.119999999999 828.2120000000001 5722.999999999999 828.4520000000001 5722.759999999999L838.2280000000001 5712.98C838.7080000000001 5712.5 838.7080000000001 5711.719999999999 838.2280000000001 5711.24C837.748 5710.76 836.969 5710.76 836.489 5711.24Z " fill="#5caedd" fill-opacity="1" transform="matrix(1,0,0,1,-815,-5702)"></path></svg>